
<svg width="835" height="883" viewBox="0 0 835 883" xmlns="http://www.w3.org/2000/svg">
	<path id="rectangle" d="M719.472,726.776L713.777,734.28L707.838,741.426L701.685,748.221L695.341,754.689L688.824,760.853L682.963,765.354L678.891,766.687L672.046,772.2L665.036,777.509L657.852,782.626L650.485,787.56L642.926,792.316L635.165,796.898L627.198,801.308L619.016,805.547L610.621,809.618L602.015,813.522L593.21,817.278L588.365,818.404L581.062,821.294L572.097,825.272L563.056,829.177L553.929,832.943L544.716,836.562L535.418,840.02L526.035,843.301L516.57,846.393L507.026,849.277L497.407,851.934L487.721,854.344L479.275,856.227L474.845,857.355L465.065,859.243L455.255,860.819L445.434,862.066L435.651,863.04L425.937,863.732L416.313,864.101L406.8,864.111L397.433,863.685L388.233,862.824L379.207,861.552L370.356,859.894L365.561,860.209L358.727,859.261L350.149,856.824L341.691,854.037L333.332,850.907L325.055,847.43L316.848,843.598L308.703,839.4L300.628,834.94L292.62,830.34L284.661,825.613L276.737,820.771L269.547,816.568L265.59,815.649L257.701,810.508L249.807,805.275L241.896,799.96L233.981,794.549L226.25,788.861L218.737,782.875L211.435,776.608L204.334,770.077L197.422,763.302L190.688,756.299L184.116,749.088L180.033,745.24L175.037,739.814L168.757,732.231L162.535,724.576L156.35,716.862L150.182,709.105L144.014,701.321L137.827,693.525L131.603,685.737L125.33,677.976L118.994,670.264L112.548,662.66L106.481,655.753L104.258,652.454L97.694,645.098L91.096,637.863L84.512,630.721L77.981,623.642L71.538,616.596L65.212,609.559L59.034,602.501L53.036,595.397L47.261,588.217L41.728,580.935L36.453,573.524L34.506,568.504L31.767,562.716L27.215,554.963L23.006,546.982L19.192,538.741L15.835,530.215L13.005,521.392L10.771,512.28L9.19,502.912L8.296,493.339L8.102,483.625L8.627,473.833L9.853,464.475L10.94,460.967L12.861,451.226L15.38,441.588L18.41,432.081L21.861,422.716L25.645,413.488L29.698,404.388L34.04,395.426L38.627,386.587L43.402,377.845L48.31,369.174L53.302,360.546L56.389,355.036L59.828,349.05L64.871,340.44L69.839,331.783L74.676,323.052L79.323,314.219L83.714,305.262L87.802,296.172L91.707,287.007L95.464,277.783L99.093,268.508L102.61,259.189L105.989,249.976L107.344,246.858L110.624,237.438L113.807,227.979L116.912,218.492L119.982,208.997L123.062,199.512L126.193,190.055L129.42,180.646L132.785,171.307L136.328,162.06L140.09,152.933L144.107,143.953L146.539,137.961L148.998,131.957L153.645,123.375L158.5,114.927L163.497,106.558L168.66,98.284L174.015,90.121L179.589,82.091L185.411,74.219L191.51,66.533L197.914,59.069L204.648,51.868L211.735,44.976L213.881,42.368L221.433,36.098L229.454,30.187L237.83,24.773L246.547,19.915L255.575,15.663L264.875,12.054L274.4,9.104L284.1,6.815L293.931,5.183L303.859,4.273L313.833,4.057L320.726,4.361L327.043,4.737L336.973,5.738L346.85,7.165L356.663,8.935L366.413,10.968L376.103,13.189L385.74,15.524L395.332,17.903L404.887,20.258L414.409,22.52L423.901,24.673L433.38,26.756L436.995,26.445L446.067,28.243L455.553,30.115L465.067,31.885L474.624,33.534L484.231,35.048L493.836,36.614L503.416,38.314L512.976,40.155L522.518,42.144L532.045,44.291L541.558,46.606L548.459,48.056L554.302,49.235L563.77,52.086L573.203,55.151L582.593,58.433L591.955,61.825L601.302,65.275L610.634,68.78L619.953,72.338L629.256,75.948L638.542,79.607L647.824,83.277L657.185,86.701L660.778,88.336L669.442,91.462L678.787,94.628L688.096,97.716L697.34,100.785L706.496,103.887L715.543,107.067L724.464,110.371L733.238,113.836L741.85,117.501L750.281,121.408L758.493,125.612L764,129.56L767.655,133.183L775.132,138.211L782.311,143.684L789.142,149.675L795.548,156.261L801.419,163.502L806.627,171.421L811.053,179.974L814.63,189.056L817.367,198.527L819.366,208.243L820.61,218.124L820.767,222.401L821.179,231.339L820.928,241.308L820.024,251.21L818.564,260.997L816.649,270.646L814.378,280.147L811.841,289.507L809.065,298.743L806.055,307.876L802.864,316.927L799.536,325.917L797.271,333.018L796.24,338.113L792.737,347.043L789.214,355.973L785.708,364.925L782.255,373.917L778.895,382.97L775.668,392.104L772.624,401.336L769.815,410.684L767.301,420.161L765.142,429.769L763.133,439.425L762.804,443.94L761.264,452.344L759.401,462.028L757.72,471.719L756.228,481.414L754.905,491.11L753.731,500.809L752.691,510.512L751.771,520.221L750.956,529.939L750.236,539.669L749.597,549.415L749.399,557.316L749.754,562.346L749.245,572.146L748.956,582.002L748.839,591.901L748.817,601.832L748.815,611.787L748.755,621.757L748.551,631.735L748.125,641.707L747.387,651.652L746.251,661.541L744.635,671.333L743.106,675.892L740.827,683.779L737.764,693.025L734.109,702.004L729.832,710.663L724.894,718.92Z" fill="#5d9d32"></path>
</svg>